
<svg xmlns="http://www.w3.org/2000/svg" style="display:none" fill="none" stroke="currentColor" stroke-width="1.4" stroke-linecap="round" stroke-linejoin="round">

  <symbol id="theo-journal" viewBox="0 0 24 24"><path d="M5 4.5h11a2 2 0 0 1 2 2V20a2 2 0 0 0-2-2H5zM19 4.5h0M9 9h6M9 12.5h4"></path></symbol>
  <symbol id="theo-library" viewBox="0 0 24 24"><path d="M5 4h3v16H5zM10 4h3v16h-3zM16 5l3.4.9-3.2 14.5L13 19"></path></symbol>
  <symbol id="theo-scroll" viewBox="0 0 24 24"><path d="M6 4h10a2 2 0 0 1 2 2v11a3 3 0 0 0 3 3H8a3 3 0 0 1-3-3V6a2 2 0 0 0-2-2zM9 8h6M9 11.5h6"></path></symbol>
  <symbol id="theo-feather" viewBox="0 0 24 24"><path d="M20 4S9 4 6 13l-2 7M6.5 14h7M4 20l5-5"></path></symbol>
  <symbol id="theo-entity" viewBox="0 0 24 24"><path d="M12 3l7 3v5c0 4.5-3 7.5-7 9-4-1.5-7-4.5-7-9V6z"></path></symbol>
  <symbol id="theo-shield" viewBox="0 0 24 24"><path d="M12 3l7 3v5c0 4.5-3 7.5-7 9-4-1.5-7-4.5-7-9V6zM9 12l2 2 4-4"></path></symbol>

  <symbol id="theo-divination" viewBox="0 0 24 24"><path d="M12 3l2.4 5.6L20 9l-4.6 3.8L17 19l-5-3.4L7 19l1.6-6.2L4 9l5.6-.4z"></path></symbol>
  <symbol id="theo-sigil" viewBox="0 0 24 24"><path d="M12 3a9 9 0 1 0 0 18 9 9 0 0 0 0-18zM12 3v18M5 8l14 8M19 8 5 16"></path></symbol>
  <symbol id="theo-pentacle" viewBox="0 0 24 24"><path d="M12 3a9 9 0 1 0 0 18 9 9 0 0 0 0-18zM12 5.5l2 6.2h6.4l-5.2 3.8 2 6.2-5.2-3.8M12 5.5l-2 6.2H3.6"></path></symbol>
  <symbol id="theo-star" viewBox="0 0 24 24"><path d="M12 3l2 6h6l-5 4 2 7-5-4-5 4 2-7-5-4h6z"></path></symbol>
  <symbol id="theo-flask" viewBox="0 0 24 24"><path d="M9 3h6M10 3v6l-4.5 9a1.6 1.6 0 0 0 1.5 2.3h10a1.6 1.6 0 0 0 1.5-2.3L14 9V3M7.5 14h9"></path></symbol>
  <symbol id="theo-compass" viewBox="0 0 24 24"><path d="M12 3a9 9 0 1 0 0 18 9 9 0 0 0 0-18zM15 9l-2 5-4 1 2-5z"></path></symbol>

  <symbol id="theo-ritual" viewBox="0 0 24 24"><path d="M12 3v9M8 7l4-4 4 4M6 12h12l-1.5 8H7.5z"></path></symbol>
  <symbol id="theo-trance" viewBox="0 0 24 24"><path d="M3 12s3.5-6 9-6 9 6 9 6-3.5 6-9 6-9-6-9-6zM12 9.5a2.5 2.5 0 1 0 0 5 2.5 2.5 0 0 0 0-5z"></path></symbol>
  <symbol id="theo-eye" viewBox="0 0 24 24"><path d="M3 12s3.5-6.5 9-6.5 9 6.5 9 6.5-3.5 6.5-9 6.5S3 12 3 12zM12 9.5a2.5 2.5 0 1 0 0 5 2.5 2.5 0 0 0 0-5z"></path></symbol>
  <symbol id="theo-candle" viewBox="0 0 24 24"><path d="M10 21h4M12 18v3M9.5 11h5v7h-5zM12 4c1.2 1.4 2 2.6 2 3.8A2 2 0 0 1 12 9.6 2 2 0 0 1 10 7.8C10 6.6 10.8 5.4 12 4z"></path></symbol>
  <symbol id="theo-hand" viewBox="0 0 24 24"><path d="M12 3c1.6 1.8 2.6 3.5 2.6 5.2A2.6 2.6 0 0 1 9.4 8.2C9.4 6.5 10.4 4.8 12 3zM8 21h8M10 21c0-2.2-2.4-3-2.4-6.2M14 21c0-2.2 2.4-3 2.4-6.2"></path></symbol>
  <symbol id="theo-bell" viewBox="0 0 24 24"><path d="M6 16V11a6 6 0 0 1 12 0v5l2 2H4zM10 20a2 2 0 0 0 4 0"></path></symbol>

  <symbol id="theo-moon" viewBox="0 0 24 24"><path d="M20 14.5A8 8 0 1 1 9.5 4a6.5 6.5 0 0 0 10.5 10.5z"></path></symbol>
  <symbol id="theo-sun" viewBox="0 0 24 24"><path d="M12 4v2M12 18v2M4 12h2M18 12h2M6 6l1.5 1.5M16.5 16.5 18 18M18 6l-1.5 1.5M7.5 16.5 6 18M12 8.5a3.5 3.5 0 1 0 0 7 3.5 3.5 0 0 0 0-7z"></path></symbol>
  <symbol id="theo-calendar" viewBox="0 0 24 24"><path d="M3.5 5.5h17v15h-17zM3.5 10h17M8 3v4M16 3v4"></path></symbol>

  <symbol id="theo-lock" viewBox="0 0 24 24"><path d="M6 11V8a6 6 0 0 1 12 0v3M5 11h14v9H5zM12 15v2"></path></symbol>
  <symbol id="theo-key" viewBox="0 0 24 24"><path d="M9.5 14.5a4 4 0 1 0-3-3M11 12.5 20 3.5M16.5 7l2.5 2.5M18 5.5 20.5 8"></path></symbol>

  <!-- Tool Registry · 14 engraving kinds (B95 / B101). Stroke-width 1.3
       is set on the consuming <svg>, not on the symbols themselves. -->
  <symbol id="theo-tool-athame" viewBox="0 0 24 24"><path d="M7 17l7-7 1 1-7 7zM14 10l4-4a1.4 1.4 0 0 0-2-2l-4 4M6 18l-1 1"></path></symbol>
  <symbol id="theo-tool-wand" viewBox="0 0 24 24"><path d="M5 19L17 7M17 7l2-2M16 4l.5 1.5L18 6l-1.5.5L16 8l-.5-1.5L14 6l1.5-.5z"></path></symbol>
  <symbol id="theo-tool-chalice" viewBox="0 0 24 24"><path d="M7 4h10l-1 6a4 4 0 0 1-8 0zM12 14v5M9 19h6"></path></symbol>
  <symbol id="theo-tool-pentacle" viewBox="0 0 24 24"><circle cx="12" cy="12" r="8"></circle><path d="M12 5l4.3 8.6H7.7z" transform="rotate(180 12 12)"></path></symbol>
  <symbol id="theo-tool-censer" viewBox="0 0 24 24"><path d="M8 21h8l-1-6H9zM9 15a3 3 0 0 0 6 0M12 3v3M10 5c0 1.5 2 1.5 2 3"></path></symbol>
  <symbol id="theo-tool-bell" viewBox="0 0 24 24"><path d="M6 17a6 6 0 0 1 12 0zM12 5v0M10 17a2 2 0 0 0 4 0"></path><circle cx="12" cy="4" r="1.4"></circle></symbol>
  <symbol id="theo-tool-sword" viewBox="0 0 24 24"><path d="M5 19l9-9M14 10l5-5-2-2-5 5M5 19l1.5-.5M9 14l1 1"></path></symbol>
  <symbol id="theo-tool-lamp" viewBox="0 0 24 24"><path d="M9 4h6l-1 5h-4zM8 9h8l1 8a2 2 0 0 1-2 2H9a2 2 0 0 1-2-2zM12 2v2"></path></symbol>
  <symbol id="theo-tool-mirror" viewBox="0 0 24 24"><ellipse cx="12" cy="10" rx="6" ry="7"></ellipse><path d="M12 17v4M9 21h6"></path></symbol>
  <symbol id="theo-tool-bowl" viewBox="0 0 24 24"><path d="M4 11h16a8 8 0 0 1-16 0zM8 8c0-1.5 8-1.5 8 0"></path></symbol>
  <symbol id="theo-tool-statue" viewBox="0 0 24 24"><circle cx="12" cy="6" r="2.4"></circle><path d="M9 21l1-9h4l1 9M8 12h8"></path></symbol>
  <symbol id="theo-tool-robe" viewBox="0 0 24 24"><path d="M8 3l-3 4 2 2v11h10V9l2-2-3-4-2 2h-2z"></path></symbol>
  <symbol id="theo-tool-cingulum" viewBox="0 0 24 24"><path d="M5 8c4 3 10 3 14 0M12 8v8M10 16l2 4 2-4"></path></symbol>
  <symbol id="theo-tool-other" viewBox="0 0 24 24"><circle cx="12" cy="12" r="8"></circle><path d="M12 8v8M8 12h8"></path></symbol>

</svg>